<svg width="48" height="36" viewBox="0 0 48 36" fill="none" xmlns="http://www.w3.org/2000/svg">
<g id="Group 1">
<path id="Vector" d="M39.2634 29.5149C38.4225 28.7462 37.7093 27.8885 37.1426 26.9644C36.2473 25.516 35.0097 24.2302 33.503 23.1827C31.9963 22.1352 30.2507 21.3471 28.3693 20.8651C26.7241 20.4452 25.0025 20.267 23.2827 20.3385C24.5344 20.2795 25.767 20.6131 26.7333 21.2725C27.6997 21.9319 28.3285 22.8683 28.4936 23.8942C28.9462 26.1108 30.1364 28.18 31.9315 29.8704C33.7265 31.5609 36.0557 32.8062 38.6586 33.4672C41.6352 34.2222 44.8247 34.1815 47.7715 33.351C44.4891 32.9091 41.4876 31.5559 39.2634 29.5149Z" fill="url(#paint0_linear_707_149)"/>
<path id="Vector_2" d="M18.022 20.4753C18.4045 21.8623 19.0773 23.1836 20.0102 24.3797C19.329 23.5112 19.0668 22.4635 19.2754 21.4433C19.4839 20.423 20.1482 19.5043 21.1369 18.8684C23.237 17.4347 24.8136 15.5479 25.6912 13.4182C26.5688 11.2886 26.713 8.99969 26.1076 6.80646C25.4166 4.29745 23.7775 2.03467 21.4269 0.344696C22.5972 2.92673 22.6644 5.76122 21.6174 8.37916C21.2166 9.3675 20.6595 10.3078 19.9605 11.1758C18.8874 12.5394 18.1563 14.0667 17.8105 15.6675C17.4647 17.2684 17.5112 18.9101 17.9474 20.4958L18.022 20.4753Z" fill="url(#paint1_linear_707_149)"/>
<path id="Vector_3" d="M25.9336 24.6601C25.37 25.585 24.4037 26.2998 23.2283 26.6612C22.0529 27.0227 20.7554 27.0039 19.596 26.6088C17.041 25.8185 14.27 25.6302 11.5928 26.0649C8.91552 26.4996 6.43747 27.5402 4.43552 29.0705C2.1529 30.8232 0.60371 33.1289 0.0115356 35.6553C2.13559 33.5272 5.0755 32.0607 8.34571 31.4979C9.5743 31.2904 10.8294 31.21 12.082 31.2586C14.0468 31.3426 16.0121 31.1009 17.8618 30.5478C19.7115 29.9946 21.4082 29.1412 22.8518 28.038C24.1152 27.0696 25.1638 25.9264 25.9502 24.6601H25.9336Z" fill="url(#paint2_linear_707_149)"/>
</g>
<defs>
<linearGradient id="paint0_linear_707_149" x1="35.5271" y1="20.3232" x2="35.5271" y2="34.0051" gradientUnits="userSpaceOnUse">
<stop stop-color="#253138"/>
<stop offset="0.426026" stop-color="#FF0000"/>
<stop offset="0.854167" stop-color="white"/>
<stop offset="1" stop-color="#1C2238" stop-opacity="0"/>
<stop offset="1" stop-color="#FF0000"/>
</linearGradient>
<linearGradient id="paint1_linear_707_149" x1="22.0285" y1="0.344696" x2="22.0285" y2="24.3797" gradientUnits="userSpaceOnUse">
<stop stop-color="#253138"/>
<stop offset="0.426026" stop-color="#FF0000"/>
<stop offset="0.854167" stop-color="white"/>
<stop offset="1" stop-color="#1C2238" stop-opacity="0"/>
<stop offset="1" stop-color="#FF0000"/>
</linearGradient>
<linearGradient id="paint2_linear_707_149" x1="12.9809" y1="24.6601" x2="12.9809" y2="35.6553" gradientUnits="userSpaceOnUse">
<stop stop-color="#253138"/>
<stop offset="0.426026" stop-color="#FF0000"/>
<stop offset="0.854167" stop-color="white"/>
<stop offset="1" stop-color="#1C2238" stop-opacity="0"/>
<stop offset="1" stop-color="#FF0000"/>
</linearGradient>
</defs>
</svg>
