<svg width="53" height="52" viewBox="0 0 53 52" fill="none" xmlns="http://www.w3.org/2000/svg">
<g id="covid:transmission-virus-mobile-application">
<rect x="0.5" width="52" height="52" rx="6" fill="#D39563" fill-opacity="0.12"/>
<path id="Vector" d="M12.8179 34.3071V39.9621H18.473L35.1516 23.2684L29.4965 17.6134L12.8179 34.3071ZM42.39 35.981L35.981 42.39L28.1393 34.5484L30.8085 31.8792L32.3165 33.3872L36.0413 29.6473L38.1827 31.7887L35.981 33.9301L37.5795 35.4381L39.7208 33.3269L42.39 35.981ZM18.2618 24.6256L10.39 16.7991L16.7991 10.39L19.4532 13.0592L15.7284 16.7991L17.3419 18.3976L21.0517 14.6577L23.193 16.7991L21.0517 18.9254L22.5597 20.4334L18.2618 24.6256ZM39.5248 18.85C40.1129 18.2618 40.1129 17.3419 39.5248 16.7237L35.996 13.2552C35.4381 12.6671 34.4579 12.6671 33.8697 13.2552L31.095 16.0149L36.7501 21.6699L39.5248 18.85Z" fill="white"/>
</g>
</svg>
