<svg width="35" height="34" viewBox="0 0 35 34" fill="none" xmlns="http://www.w3.org/2000/svg">
<path id="Vector" d="M11.6818 22.8182H23.3182M17.5 17V22.8182M8.77273 8.27273V6.81818C8.77273 2.45455 10.9545 1 14.5909 1H20.4091C24.0455 1 26.2273 3.18182 26.2273 6.81818V8.27273C30.5909 8.27273 33.5 11.1818 33.5 15.5455C33.5 19.9091 30.5909 22.8182 26.2273 22.8182M8.77273 8.27273H20.4091M8.77273 8.27273C4.40909 8.27273 1.5 10.4545 1.5 15.5455C1.5 20.6364 4.40909 22.8182 8.77273 22.8182M11.6818 33H23.3182V17H11.6818V33Z" stroke="white" stroke-width="2"/>
</svg>
