<svg width="33" height="32" viewBox="0 0 33 32" fill="none" xmlns="http://www.w3.org/2000/svg">
<g id="Group">
<path id="Vector" d="M25.8333 5.33331C26.5406 5.33331 27.2189 5.61426 27.719 6.11436C28.219 6.61446 28.5 7.29274 28.5 7.99998V24C28.5 24.7072 28.219 25.3855 27.719 25.8856C27.2189 26.3857 26.5406 26.6666 25.8333 26.6666H7.16667C6.45942 26.6666 5.78115 26.3857 5.28105 25.8856C4.78095 25.3855 4.5 24.7072 4.5 24V7.99998C4.5 7.29274 4.78095 6.61446 5.28105 6.11436C5.78115 5.61426 6.45942 5.33331 7.16667 5.33331H25.8333ZM25.8333 16H7.16667V24H25.8333V16ZM25.8333 7.99998H7.16667V13.3333H25.8333V7.99998ZM9.83333 9.33331C10.187 9.33331 10.5261 9.47379 10.7761 9.72384C11.0262 9.97389 11.1667 10.313 11.1667 10.6666C11.1667 11.0203 11.0262 11.3594 10.7761 11.6095C10.5261 11.8595 10.187 12 9.83333 12C9.47971 12 9.14057 11.8595 8.89052 11.6095C8.64048 11.3594 8.5 11.0203 8.5 10.6666C8.5 10.313 8.64048 9.97389 8.89052 9.72384C9.14057 9.47379 9.47971 9.33331 9.83333 9.33331ZM13.8333 9.33331C14.187 9.33331 14.5261 9.47379 14.7761 9.72384C15.0262 9.97389 15.1667 10.313 15.1667 10.6666C15.1667 11.0203 15.0262 11.3594 14.7761 11.6095C14.5261 11.8595 14.187 12 13.8333 12C13.4797 12 13.1406 11.8595 12.8905 11.6095C12.6405 11.3594 12.5 11.0203 12.5 10.6666C12.5 10.313 12.6405 9.97389 12.8905 9.72384C13.1406 9.47379 13.4797 9.33331 13.8333 9.33331ZM17.8333 9.33331C18.187 9.33331 18.5261 9.47379 18.7761 9.72384C19.0262 9.97389 19.1667 10.313 19.1667 10.6666C19.1667 11.0203 19.0262 11.3594 18.7761 11.6095C18.5261 11.8595 18.187 12 17.8333 12C17.4797 12 17.1406 11.8595 16.8905 11.6095C16.6405 11.3594 16.5 11.0203 16.5 10.6666C16.5 10.313 16.6405 9.97389 16.8905 9.72384C17.1406 9.47379 17.4797 9.33331 17.8333 9.33331Z" fill="white"/>
</g>
</svg>
