<svg width="53" height="52" viewBox="0 0 53 52" fill="none" xmlns="http://www.w3.org/2000/svg">
<g id="covid:transmission-virus-mobile-application">
<rect x="0.5" width="52" height="52" rx="6" fill="#D39563" fill-opacity="0.12"/>
<g id="Group">
<path id="Vector" d="M35.1778 25.584C36.3633 25.584 37.5003 25.1131 38.3386 24.2748M35.1778 25.584C33.9922 25.584 32.8553 25.1131 32.017 24.2748M35.1778 25.584V28.9362M38.3386 24.2748C39.1769 23.4365 39.6478 22.2995 39.6478 21.114M38.3386 24.2748L40.7088 26.645M39.6478 21.114C39.6478 19.9284 39.1769 18.7915 38.3386 17.9532M39.6478 21.114H43M38.3386 17.9532C37.5003 17.1149 36.3633 16.6439 35.1778 16.6439M38.3386 17.9532L40.7088 15.5829M35.1778 16.6439C33.9922 16.6439 32.8553 17.1149 32.017 17.9532M35.1778 16.6439V13.2917M32.017 17.9532C31.1787 18.7915 30.7077 19.9284 30.7077 21.114M32.017 17.9532L29.6468 15.5829M30.7077 21.114C30.7077 22.2995 31.1787 23.4365 32.017 24.2748M30.7077 21.114H27.3556M32.017 24.2748L29.6468 26.645M34.4325 13.2917H35.923M40.1826 15.0567L41.235 16.1092M43 20.3687V21.8592M41.235 26.1188L40.1826 27.1712M35.923 28.9362H34.4325M30.173 27.1712L29.1205 26.1188M27.3556 21.8592V20.3687M29.1205 16.1092L30.173 15.0567M20.6 32.8473L22.9794 31.0624C23.2221 30.8801 23.4995 30.7493 23.7945 30.6779C24.0896 30.6066 24.3961 30.5962 24.6952 30.6475C24.9944 30.6988 25.28 30.8106 25.5345 30.9761C25.7889 31.1416 26.0069 31.3573 26.1751 31.61C26.4193 31.9764 26.5496 32.4069 26.5496 32.8473C26.5496 33.2877 26.4193 33.7182 26.1751 34.0846L23.8356 37.5932C23.1166 38.6709 22.0876 39.5051 20.8844 39.9854L17.4 41.3806M21.6667 25.3806L16.5538 27.5723C15.0432 28.2193 13.8393 29.4226 13.1916 30.933L11.5177 34.8384C11.1759 35.6356 10.9998 36.494 11 37.3614V44.5806" stroke="white" stroke-width="1.5" stroke-linecap="round" stroke-linejoin="round"/>
<path id="Vector_2" d="M43 31.7806V41.3806C43 42.2293 42.6628 43.0432 42.0627 43.6434C41.4626 44.2435 40.6487 44.5806 39.8 44.5806H24.8667C24.018 44.5806 23.204 44.2435 22.6039 43.6434C22.0038 43.0432 21.6667 42.2293 21.6667 41.3806V39.6099M21.6667 32.0466V15.7806C21.6667 14.9319 22.0038 14.118 22.6039 13.5179C23.204 12.9178 24.018 12.5806 24.8667 12.5806H27.3555" stroke="white" stroke-width="1.5" stroke-linecap="round" stroke-linejoin="round"/>
</g>
</g>
</svg>
